<svg width="500" height="500" viewBox="0 0 272 241" fill="none" xmlns="http://www.w3.org/2000/svg">
<path fill-rule="evenodd" clip-rule="evenodd" d="M121.524 0.464295C132.19 1.47488 148.19 5.18037 157.714 8.88585C167.238 12.5913 182.095 22.0235 191.238 29.7713C200 37.5191 211.048 51.6674 215.619 60.7626C220.952 71.8791 224 84.6799 224 99.5018C224.381 117.692 222.095 125.103 200 165.19L236.952 197.866C272.381 229.194 273.524 231.215 267.048 236.605C260.952 242.331 258.667 241.321 186.286 177.317L161.524 188.097C140.952 196.855 132.571 198.876 112 198.539C94.8571 198.539 81.1428 196.181 68.1905 190.791C57.5238 186.749 41.9048 176.98 32.7619 169.232C24 161.484 12.9524 147.673 8.38095 138.241C2.66667 126.788 0 114.324 0 99.5018C0 84.0061 2.66667 72.5528 8.7619 60.7626C13.3333 51.6674 23.619 38.1929 31.2381 31.1188C38.8571 24.0447 51.8095 15.2862 59.4286 11.5807C67.4286 8.21213 80.3809 3.83292 88 2.14861C96 0.127433 110.857 -0.546292 121.524 0.464295V0.464295ZM64 32.8031C57.5238 36.5086 46.4762 45.9407 40 53.6885C33.5238 61.4364 26.2857 75.2477 24 84.343C20.5714 98.1543 20.9524 104.555 25.5238 119.714C28.9524 129.819 36.5714 143.631 42.6667 150.031C48.7619 156.432 62.0952 165.527 72.3809 169.906C85.3333 175.633 97.5238 178.328 112 178.328C126.857 178.328 138.286 175.97 152 169.906C162.286 165.19 176.381 155.421 182.857 148.01C189.333 140.936 196.571 126.788 198.857 117.355C202.286 103.544 202.286 95.4595 198.857 81.985C196.571 72.216 189.333 58.0677 182.857 50.9936C176.381 43.5827 163.429 34.1505 153.905 30.1082C144.381 25.729 129.905 21.6866 121.524 20.676C113.143 20.0023 99.4286 20.676 91.0476 22.3603C82.6667 24.3815 70.4762 28.7607 64 32.8031Z" fill="#77A459" fill-opacity="0.99"/>
<path d="M268.19 224.141C267.048 224.141 251.048 210.666 232 193.823C212.952 176.98 199.238 163.506 200.762 163.506C202.286 163.506 218.667 177.317 236.952 193.823C255.238 210.666 269.333 224.141 268.19 224.141Z" fill="#77A459" fill-opacity="0.7"/>
<path d="M252.952 237.615C251.809 237.615 235.809 224.141 216.762 207.298C197.714 190.455 184 176.98 185.524 176.98C187.048 176.98 203.429 190.791 221.714 207.298C240 224.141 254.095 237.615 252.952 237.615Z" fill="#77A459" fill-opacity="0.7"/>
<path d="M267.048 239.973C264 241.77 263.492 241.209 265.524 238.289C267.048 236.268 269.333 234.247 270.095 234.247C271.238 234.247 272 234.92 272 235.931C272 236.942 269.714 238.626 267.048 239.973Z" fill="#77A459" fill-opacity="0.7"/>
<path d="M193.905 32.1293C192.762 32.1293 190.857 30.7819 189.714 28.7607C188.572 26.7395 188.572 25.3921 189.714 25.3921C190.857 25.3921 192.762 26.7395 193.905 28.7607C195.048 30.7819 195.048 32.1293 193.905 32.1293Z" fill="#77A459" fill-opacity="0.8"/>
<path d="M46.0952 44.5933C43.0475 46.3899 42.5396 45.8284 44.5713 42.909C46.0952 40.8878 48.3809 38.8666 49.1428 38.8666C50.2856 38.8666 51.0475 39.5403 51.0475 40.5509C51.0475 41.5615 48.7618 43.2458 46.0952 44.5933Z" fill="#77A459" fill-opacity="0.59"/>
<path d="M49.1428 160.137C47.9999 160.137 46.0952 158.79 44.9523 156.768C43.8094 155.084 43.8094 153.4 44.9523 153.4C46.0952 153.4 47.9999 155.084 49.1428 156.768C50.2856 158.79 50.2856 160.137 49.1428 160.137Z" fill="#77A459" fill-opacity="0.59"/>
<path fill-rule="evenodd" clip-rule="evenodd" d="M87.9592 48C88.7755 48 92.6531 49.6375 96.6327 51.5819C100.714 53.6287 103.776 55.7779 103.776 56.699C103.776 57.8247 102.041 57.4154 89.4898 51.0702V100.194H97.449C102.449 100.194 105.816 100.603 106.633 101.422C107.347 102.138 107.857 103.776 107.857 105.004C107.857 106.334 107.143 107.562 106.327 107.869C105.102 108.279 104.796 111.042 104.796 139.083H115V133.148C114.898 128.133 114.49 126.802 111.939 124.039C110.204 122.197 108.878 119.536 108.878 118.103C108.878 116.671 109.592 114.214 110.408 112.475C111.224 110.735 113.469 108.688 115.51 107.869C117.449 107.051 119.592 106.334 120.102 106.334C120.612 106.334 121.122 107.051 121.122 107.869C121.122 108.688 120.204 109.404 119.082 109.404C117.959 109.404 116.122 109.916 115 110.428C113.878 110.94 112.449 112.782 111.939 114.522C111.259 116.568 111.259 118.445 111.939 120.15C112.449 121.583 114.184 123.527 115.816 124.449C117.857 125.677 119.592 125.881 122.653 125.37C126.02 124.756 126.531 124.858 125.408 125.984C124.694 126.7 124.184 129.77 124.184 139.083L132.653 139.697C137.245 140.004 146.429 140.209 152.959 140.004C159.592 139.8 165 139.902 165 140.311C165 140.823 142.551 141.13 115 141.13C82.3469 141.13 65 140.823 65 140.107C65 139.595 66.2245 138.981 70.6122 138.572L70.9184 123.732C71.1224 111.349 70.9184 108.79 69.5918 108.074C68.7755 107.665 68.0612 106.334 68.0612 105.004C68.0612 103.776 68.5714 102.138 69.2857 101.422C70.102 100.705 73.4694 100.194 86.4286 100.194V74.0969C86.4286 51.5819 86.6327 48 87.9592 48V48ZM87.9592 105.823C100 105.823 104.184 105.516 104.49 104.492C104.694 103.571 100.918 103.264 87.8571 103.264C74.6939 103.264 71.0204 103.571 71.3265 104.594C71.7347 105.516 75.9184 105.823 87.9592 105.823V105.823ZM74.1837 138.06H101.735V109.404H74.1837V138.06ZM119.592 138.06C120.714 138.06 121.122 136.832 121.122 133.455C121.122 130.077 120.714 128.849 119.592 128.849C118.469 128.849 118.061 130.077 118.061 133.455C118.061 136.832 118.469 138.06 119.592 138.06ZM161.122 79.2139C161.735 79.521 162.143 80.8514 162.041 82.0795C162.041 83.3076 161.327 85.0474 160.408 85.8661C159.082 87.0942 158.776 89.5504 158.878 97.9423C158.878 104.185 158.469 108.381 157.857 108.381C157.245 108.381 156.837 104.083 156.837 97.6353C156.837 87.1965 156.735 86.8895 154.592 86.8895C153.163 86.8895 152.755 86.4801 153.265 85.9684C153.878 85.4567 155.408 84.8427 156.837 84.638C158.537 84.4333 159.422 83.6487 159.49 82.2842C159.592 81.1584 159.796 79.828 159.898 79.4186C160 78.9069 160.612 78.9069 161.122 79.2139V79.2139ZM158.571 109.404C158.673 109.404 158.878 112.372 158.878 116.057C158.878 119.843 158.469 122.709 157.857 122.709C157.245 122.709 156.735 120.048 156.633 116.773C156.531 113.498 156.837 110.428 157.347 110.121C157.857 109.711 158.367 109.404 158.571 109.404ZM158.061 123.835C158.571 123.835 158.878 125.984 158.878 128.849C158.878 131.612 158.367 133.966 157.857 133.966C157.245 133.966 156.837 132.329 156.837 130.384C156.837 127.519 156.429 126.802 154.796 126.802C153.673 126.802 152.755 126.291 152.755 125.779C152.755 125.267 153.776 124.551 155 124.346C156.327 124.142 157.653 123.937 158.061 123.835Z" fill="#77A459" fill-opacity="0.99"/>
<path fill-rule="evenodd" clip-rule="evenodd" d="M120.408 63.5558C135.306 71.2314 136.939 72.3571 137.449 77.6788H148.673C157.143 77.6788 159.796 77.9858 159.592 79.0092C159.286 79.828 156.02 80.3397 148.367 80.442C139.49 80.749 137.449 81.0561 137.449 82.2842C137.449 83.5122 139.388 83.8193 148.469 83.9216C154.49 84.0239 158.265 84.331 156.837 84.5357C155.408 84.8427 153.878 85.4567 153.265 85.9684C152.755 86.4801 148.98 86.8895 137.449 86.8895L137.245 105.311C136.939 121.071 137.143 123.732 138.469 123.835C139.286 123.937 140.714 124.142 141.531 124.244C142.347 124.346 145.204 124.551 147.959 124.653C150.612 124.653 152.755 125.267 152.755 125.779C152.755 126.393 149.286 126.905 136.939 127.314V138.572L156.837 139.083V136.525C156.837 135.092 157.347 133.966 157.857 133.966C158.469 133.966 158.878 134.887 158.878 136.013C158.878 137.139 159.694 138.469 160.714 139.083C161.837 139.697 157.551 140.004 147.143 140.004C138.776 140.004 132.449 139.8 133.163 139.493C134.082 139.186 134.388 131.612 134.388 73.5852L119.082 65.9096C109.286 60.9973 103.776 57.7224 103.776 56.699C103.878 55.5732 108.469 57.5177 120.408 63.5558ZM123.163 107.153C124.49 107.562 126.633 109.097 127.959 110.735C129.592 112.577 130.306 114.829 130.306 117.592C130.306 120.56 129.592 122.402 127.653 124.551C126.224 126.086 125.306 126.7 125.612 126.086C125.918 125.37 125.714 124.756 125.102 124.756C124.49 124.756 124.796 124.039 125.612 123.22C126.531 122.402 127.551 120.662 127.857 119.434C128.163 118.103 127.857 115.852 127.347 114.317C126.735 112.679 125.102 110.837 123.673 110.223C122.245 109.507 121.02 108.381 120.918 107.665C120.918 106.948 121.735 106.744 123.163 107.153ZM157.857 108.381C158.367 108.381 158.878 108.586 158.878 108.893C158.878 109.2 158.367 109.609 157.857 109.916C157.347 110.223 156.837 109.916 156.837 109.404C156.837 108.893 157.347 108.381 157.857 108.381ZM114.49 110.428C114.796 110.428 115 110.633 115 110.94C115 111.247 114.388 111.758 113.776 112.168C112.891 112.713 112.721 112.543 113.265 111.656C113.673 111.042 114.286 110.428 114.49 110.428ZM111.633 116.875C112.143 117.285 112.143 117.899 111.633 118.41C111.224 118.82 110.816 118.41 110.816 117.592C110.816 116.773 111.224 116.364 111.633 116.875ZM157.857 122.709C158.469 122.709 158.878 122.913 158.878 123.22C158.878 123.527 158.061 123.937 157.143 124.244C156.122 124.551 155.714 124.346 156.224 123.732C156.633 123.118 157.347 122.709 157.857 122.709V122.709ZM111.327 123.732C111.633 123.732 112.143 124.244 112.449 124.756C112.755 125.267 112.755 125.779 112.449 125.779C112.143 125.779 111.633 125.267 111.327 124.756C111.02 124.244 111.02 123.732 111.327 123.732Z" fill="#77A459" fill-opacity="0.97"/>
<path d="M162.245 138.572C159.49 138.572 159.388 138.367 159.286 132.636V126.802L159.592 132.431C159.898 137.548 160.102 138.06 162.449 138.265C164.592 138.572 164.592 138.572 162.245 138.572Z" fill="#77A459" fill-opacity="0.79"/>
<path d="M67.7551 138.367C69.2857 138.162 70.102 137.241 70.102 135.706C70.2041 134.273 70.4081 133.966 70.7143 134.887C71.0204 135.808 70.9183 137.036 70.6122 137.753C70.3061 138.469 68.9796 138.981 65.4081 138.776L67.7551 138.367Z" fill="#77A459" fill-opacity="0.79"/>
<path d="M113.367 138.674C112.143 138.981 109.898 138.981 108.265 138.776C106.531 138.469 107.551 138.265 110.306 138.265C113.163 138.265 114.49 138.469 113.367 138.674Z" fill="#77A459" fill-opacity="0.79"/>
<path d="M155.612 138.572C155.408 138.879 154.592 138.981 153.673 138.674C152.653 138.265 152.755 138.162 154.082 138.06C155.204 138.06 155.918 138.265 155.612 138.572Z" fill="#77A459" fill-opacity="0.79"/>
<path d="M83.3674 99.8868C81.4286 100.091 77.7551 100.091 75.2041 99.8868C72.6531 99.6821 74.2857 99.4774 78.7755 99.4774C83.2653 99.4774 85.3061 99.6821 83.3674 99.8868Z" fill="#77A459" fill-opacity="0.33"/>
<path d="M92.449 99.7844C92.2449 100.091 91.3265 100.091 90.5102 99.8868C89.3878 99.4774 89.4898 99.2727 90.9184 99.2727C92.0408 99.1704 92.6531 99.4774 92.449 99.7844Z" fill="#77A459" fill-opacity="0.33"/>
<path d="M156.531 114.522C156.225 115.34 156.02 114.931 156.02 113.498C156.02 112.065 156.225 111.349 156.531 111.963C156.735 112.475 156.735 113.703 156.531 114.522Z" fill="#77A459" fill-opacity="0.33"/>
<path d="M156.531 132.943C156.225 134.478 156.122 133.864 156.122 131.408C156.02 129.156 156.225 128.03 156.531 128.849C156.735 129.668 156.735 131.51 156.531 132.943Z" fill="#77A459" fill-opacity="0.33"/>
<path d="M124.898 136.525C124.592 137.855 124.388 137.446 124.388 135.501C124.388 133.762 124.592 132.841 124.796 133.455C125.102 133.966 125.102 135.399 124.898 136.525Z" fill="#77A459" fill-opacity="0.33"/>
<path d="M83.3674 141.846C79.6939 142.051 73.9796 142.051 70.6123 141.846C67.2449 141.642 70.2041 141.539 77.2449 141.539C84.2857 141.539 87.0408 141.642 83.3674 141.846Z" fill="#77A459" fill-opacity="0.33"/>
<path d="M117.041 141.846C113.98 142.051 108.469 142.051 104.796 141.846C101.122 141.642 103.673 141.539 110.408 141.539C117.143 141.539 120.102 141.642 117.041 141.846Z" fill="#77A459" fill-opacity="0.33"/>
<path d="M164.286 141.744C163.571 141.949 162.347 141.949 161.735 141.744C161.02 141.437 161.531 141.335 162.959 141.335C164.388 141.335 164.898 141.437 164.286 141.744Z" fill="#77A459" fill-opacity="0.33"/>
<path d="M101.735 99.8868C100.306 100.091 97.551 100.091 95.6122 99.8868C93.6735 99.6821 94.7959 99.4774 98.1633 99.4774C101.531 99.4774 103.163 99.6821 101.735 99.8868Z" fill="#77A459" fill-opacity="0.31"/>
<path d="M152.755 127.519C150.816 127.723 147.143 127.723 144.592 127.519C142.041 127.314 143.673 127.109 148.163 127.109C152.653 127.109 154.694 127.314 152.755 127.519Z" fill="#77A459" fill-opacity="0.31"/>
<path d="M124.592 130.077C124.49 130.794 124.286 130.487 124.286 129.361C124.184 128.235 124.286 127.621 124.49 128.03C124.694 128.44 124.694 129.361 124.592 130.077Z" fill="#77A459" fill-opacity="0.31"/>
<path d="M156.224 137.241C156.122 137.958 155.918 137.651 155.918 136.525C155.816 135.399 155.918 134.785 156.122 135.194C156.327 135.604 156.327 136.525 156.224 137.241Z" fill="#77A459" fill-opacity="0.31"/>
<path d="M97.0408 141.846C95.9184 142.051 93.5714 142.051 91.9388 141.846C90.3061 141.642 91.2245 141.437 94.0816 141.437C96.9388 141.437 98.2653 141.642 97.0408 141.846Z" fill="#77A459" fill-opacity="0.31"/>
<path d="M151.224 141.846C145.612 142.051 136.633 142.051 131.327 141.846C126.02 141.744 130.612 141.539 141.531 141.539C152.449 141.539 156.837 141.744 151.224 141.846Z" fill="#77A459" fill-opacity="0.31"/>
<path d="M156.531 105.311C156.327 108.995 156.224 106.437 156.224 99.6821C156.224 92.9276 156.327 89.9597 156.531 93.0299C156.735 96.1002 156.735 101.627 156.531 105.311Z" fill="#77A459" fill-opacity="0.36"/>
<path d="M156.531 121.685C156.327 123.118 156.122 122.197 156.122 119.639C156.122 117.08 156.327 115.954 156.531 117.08C156.735 118.206 156.735 120.253 156.531 121.685Z" fill="#77A459" fill-opacity="0.36"/>
<path d="M134.082 87.4012C133.878 89.6527 133.776 87.4012 133.776 82.2842C133.776 77.1671 133.878 75.325 134.082 78.1905C134.286 80.9537 134.286 85.1497 134.082 87.4012Z" fill="#77A459" fill-opacity="0.2"/>
<path d="M152.755 77.3718C149.694 77.5765 144.796 77.5765 142.041 77.3718C139.184 77.1671 141.735 77.0648 147.653 77.0648C153.571 77.0648 155.816 77.1671 152.755 77.3718Z" fill="#77A459" fill-opacity="0.2"/>
<path d="M151.224 87.6059C148.367 87.8106 144.082 87.8106 141.531 87.6059C138.98 87.4012 141.327 87.2989 146.633 87.2989C151.939 87.2989 153.98 87.4012 151.224 87.6059Z" fill="#77A459" fill-opacity="0.2"/>
<path d="M105.51 126.802C105.204 127.621 105 127.212 105 125.779C105 124.346 105.204 123.732 105.51 124.244C105.714 124.756 105.714 125.984 105.51 126.802Z" fill="#78A559" fill-opacity="0.56"/>
<path d="M105.51 136.013C105.306 137.446 105.102 136.525 105.102 133.966C105.102 131.408 105.306 130.282 105.51 131.408C105.714 132.533 105.714 134.58 105.51 136.013Z" fill="#78A559" fill-opacity="0.56"/>
<path d="M134.082 117.08C133.98 122.197 133.776 118.206 133.776 108.381C133.776 98.5563 133.98 94.3604 134.082 99.1704C134.286 103.98 134.286 111.963 134.082 117.08Z" fill="#77A459" fill-opacity="0.24"/>
<path d="M132.755 138.776C131.633 138.981 129.286 138.981 127.653 138.776C126.02 138.572 126.939 138.367 129.796 138.367C132.653 138.367 133.98 138.572 132.755 138.776Z" fill="#78A55A" fill-opacity="0.83"/>
<path d="M149.694 138.776C147.755 138.981 144.082 138.981 141.531 138.776C138.98 138.572 140.612 138.367 145.102 138.367C149.592 138.367 151.633 138.572 149.694 138.776Z" fill="#78A55A" fill-opacity="0.83"/>
<path d="M159.592 117.592C159.49 122.913 159.286 118.103 159.286 106.846C159.286 95.5885 159.49 91.1878 159.592 97.1236C159.796 103.059 159.796 112.27 159.592 117.592Z" fill="#77A459" fill-opacity="0.76"/>
<path d="M70.8163 127.826C70.6122 131.51 70.5102 128.747 70.5102 121.685C70.5102 114.624 70.6122 111.656 70.8163 115.033C71.0204 118.41 71.0204 124.142 70.8163 127.826Z" fill="#77A459" fill-opacity="0.76"/>
<path d="M134.082 134.99C133.878 136.934 133.673 135.604 133.673 131.919C133.673 128.235 133.878 126.598 134.082 128.337C134.286 130.077 134.286 133.045 134.082 134.99Z" fill="#77A459" fill-opacity="0.29"/>
<path d="M140.408 127.416C140.204 127.723 139.286 127.723 138.469 127.519C137.347 127.109 137.449 126.905 138.878 126.905C140 126.802 140.612 127.109 140.408 127.416Z" fill="#77A459" fill-opacity="0.29"/>
<path d="M141.224 124.449C140.816 124.96 140.204 124.96 139.796 124.449C139.286 124.039 139.592 123.732 140.408 123.732C141.224 123.732 141.531 124.039 141.224 124.449Z" fill="#77A459" fill-opacity="0.94"/>
<path d="M152.755 124.449C150.816 124.653 147.857 124.653 146.122 124.449C144.388 124.244 146.02 124.039 149.694 124.039C153.367 124.039 154.694 124.244 152.755 124.449Z" fill="#77A459" fill-opacity="0.94"/>
<path d="M137.143 135.501C136.939 137.241 136.735 136.013 136.735 132.943C136.735 129.873 136.939 128.44 137.143 129.873C137.347 131.305 137.347 133.762 137.143 135.501Z" fill="#77A459" fill-opacity="0.94"/>
<path d="M112.449 126.802C112.143 126.802 111.633 126.291 111.327 125.779C111.02 125.267 111.02 124.756 111.327 124.756C111.633 124.756 112.143 125.267 112.449 125.779C112.755 126.291 112.755 126.802 112.449 126.802Z" fill="#77A459" fill-opacity="0.14"/>
<path d="M105.51 120.662C105.306 122.606 105.102 120.764 105.102 116.568C105.102 112.372 105.306 110.735 105.51 112.986C105.714 115.238 105.714 118.717 105.51 120.662Z" fill="#77A459" fill-opacity="0.59"/>
<path d="M131.02 118.41C130.612 118.82 130.204 118.41 130.204 117.592C130.204 116.773 130.612 116.364 131.02 116.773C131.531 117.285 131.531 117.899 131.02 118.41Z" fill="#77A459" fill-opacity="0.59"/>
<path d="M105.51 129.668C105.102 130.077 104.694 129.668 104.694 128.849C104.694 128.03 105.102 127.621 105.51 128.03C105.918 128.542 105.918 129.156 105.51 129.668Z" fill="#77A459" fill-opacity="0.59"/>
<path d="M99.1837 70.515C97.7551 70.515 96.6327 70.1056 96.6327 69.4915C96.6327 68.8775 97.7551 68.4681 99.1837 68.4681C100.612 68.4681 101.735 68.8775 101.735 69.4915C101.735 70.1056 100.612 70.515 99.1837 70.515Z" fill="#77A459" fill-opacity="0.99"/>
<path d="M99.1837 78.7022C97.7551 78.7022 96.6327 78.1905 96.6327 77.6788C96.6327 77.1671 97.7551 76.6554 99.1837 76.6554C100.612 76.6554 101.735 77.1671 101.735 77.6788C101.735 78.1905 100.612 78.7022 99.1837 78.7022Z" fill="#77A459" fill-opacity="0.99"/>
<path d="M96.4286 86.0708C96.3265 85.559 96.7347 84.8427 97.1429 84.4333C97.6531 84.0239 98.7755 83.9216 99.5918 84.0239C100.408 84.2286 101.224 84.945 101.429 85.6614C101.633 86.3778 100.714 86.8895 99.1837 86.8895C97.7551 86.8895 96.5306 86.4801 96.4286 86.0708Z" fill="#77A459" fill-opacity="0.99"/>
<path d="M111.939 86.8895C110.816 86.8895 109.592 86.3778 109.286 85.8661C108.98 85.252 109.796 84.8427 111.327 84.8427C112.755 84.8427 113.98 85.3544 113.98 85.8661C113.98 86.3778 113.061 86.8895 111.939 86.8895Z" fill="#77A459" fill-opacity="0.99"/>
<path d="M98.9796 94.565C98.0612 94.565 97.1429 93.951 96.9388 93.2346C96.6667 92.2794 97.3129 91.9383 98.8776 92.2112C100.204 92.3135 101.122 93.0299 100.918 93.5416C100.816 94.0533 99.898 94.565 98.9796 94.565Z" fill="#77A459" fill-opacity="0.99"/>
<path d="M109.388 94.3604C109.184 93.8486 109.184 93.2346 109.592 92.8252C109.898 92.3135 111.122 92.0065 112.143 92.0065C113.163 92.0065 113.98 92.7229 113.98 93.5416C113.98 94.3604 113.061 95.0767 111.939 95.0767C110.816 95.0767 109.694 94.7697 109.388 94.3604Z" fill="#77A459" fill-opacity="0.99"/>
<path d="M111.429 78.7022C110 78.7022 108.878 78.1905 108.878 77.6788C108.878 77.1671 110.306 76.6554 111.939 76.6554C113.673 76.6554 114.796 77.0648 114.49 77.6788C114.184 78.1905 112.857 78.7022 111.429 78.7022Z" fill="#77A459" fill-opacity="0.97"/>
<path d="M112.347 85.1497C111.02 84.945 109.898 84.638 109.898 84.331C109.898 84.024 110.816 83.8193 111.939 83.8193C113.061 83.8193 114.184 84.1263 114.388 84.5357C114.592 85.0474 113.673 85.252 112.347 85.1497Z" fill="#77A459" fill-opacity="0.97"/>
<path d="M124.694 86.8895C123.061 86.8895 122.143 86.3778 122.245 85.252C122.245 84.2286 123.061 83.8193 124.49 84.024C125.612 84.2286 126.735 84.945 126.939 85.5591C127.143 86.3778 126.225 86.8895 124.694 86.8895Z" fill="#77A459" fill-opacity="0.97"/>
<path d="M124.388 94.8721C122.959 94.9744 122.143 94.4627 122.143 93.5417C122.143 92.6206 123.061 92.0065 124.694 92.0065C126.225 92.0065 127.143 92.5182 126.939 93.337C126.735 93.951 125.612 94.6674 124.388 94.8721Z" fill="#77A459" fill-opacity="0.97"/>
<path d="M146.837 94.8721C145.408 94.9744 144.592 94.4627 144.592 93.5417C144.592 92.6206 145.51 92.0065 147.143 92.0065C148.673 92.0065 149.592 92.5182 149.388 93.337C149.184 93.951 148.061 94.6674 146.837 94.8721Z" fill="#77A459" fill-opacity="0.97"/>
<path d="M124.694 102.241C123.265 102.241 122.143 101.729 122.143 101.217C122.143 100.706 123.265 100.194 124.694 100.194C126.122 100.194 127.245 100.706 127.245 101.217C127.245 101.729 126.122 102.241 124.694 102.241Z" fill="#77A459" fill-opacity="0.97"/>
<path d="M147.143 102.241C145.714 102.241 144.592 101.729 144.592 101.217C144.592 100.706 145.714 100.194 147.143 100.194C148.571 100.194 149.694 100.706 149.694 101.217C149.694 101.729 148.571 102.241 147.143 102.241Z" fill="#77A459" fill-opacity="0.97"/>
<path d="M147.143 110.428C145.714 110.428 144.592 109.916 144.592 109.404C144.592 108.893 145.714 108.381 147.143 108.381C148.571 108.381 149.694 108.893 149.694 109.404C149.694 109.916 148.571 110.428 147.143 110.428Z" fill="#77A459" fill-opacity="0.97"/>
<path d="M147.143 118.615C145.714 118.615 144.592 118.103 144.592 117.592C144.592 117.08 145.714 116.568 147.143 116.568C148.571 116.568 149.694 117.08 149.694 117.592C149.694 118.103 148.571 118.615 147.143 118.615Z" fill="#77A459" fill-opacity="0.97"/>
<path d="M147.143 103.059C146.02 103.264 144.592 102.957 144.082 102.343C143.367 101.627 144.082 101.524 146.122 101.934C148.469 102.548 148.673 102.752 147.143 103.059Z" fill="#77A459" fill-opacity="0.79"/>
<path d="M96.6326 102.957C92.449 103.162 85.102 103.162 80.3061 102.957C75.5102 102.855 78.9796 102.65 87.9592 102.65C96.9388 102.65 100.816 102.855 96.6326 102.957Z" fill="#77A459" fill-opacity="0.79"/>
<path d="M121.122 133.455C121.122 130.691 120.612 128.645 119.898 128.338C119.184 128.03 119.286 128.03 120.102 128.133C121.224 128.44 121.633 129.873 121.633 133.455C121.633 136.218 121.224 138.469 120.612 138.572C120.102 138.674 119.898 138.572 120.408 138.367C120.816 138.265 121.122 136.013 121.122 133.455Z" fill="#77A459" fill-opacity="0.79"/>
<path d="M83.3673 138.776C81.4285 138.981 78.4694 138.981 76.7347 138.776C75 138.572 76.6326 138.367 80.3061 138.367C83.9796 138.367 85.3061 138.572 83.3673 138.776Z" fill="#77A459" fill-opacity="0.79"/>
<path d="M73.8775 131.408C73.7755 135.297 73.5714 131.919 73.5714 123.732C73.5714 115.545 73.7755 112.372 73.8775 116.568C74.0816 120.764 74.0816 127.519 73.8775 131.408Z" fill="#77A459" fill-opacity="0.36"/>
<path d="M100.612 87.5035C100.408 87.8106 99.4898 87.8106 98.6734 87.6059C97.551 87.1965 97.653 86.9918 99.0816 86.9918C100.204 86.8895 100.816 87.1965 100.612 87.5035Z" fill="#77A459" fill-opacity="0.2"/>
<path d="M112.653 87.6059C112.245 88.1176 111.633 88.0152 111.224 87.6059H111.122C110.714 87.1965 111.02 86.8895 111.837 86.8895C112.653 86.8895 112.959 87.1965 112.653 87.6059Z" fill="#77A459" fill-opacity="0.2"/>
<path d="M126.224 87.5035C126.02 87.8106 125.102 87.8106 124.286 87.6059C123.163 87.1965 123.265 86.9918 124.694 86.9918C125.816 86.8895 126.429 87.1965 126.224 87.5035Z" fill="#77A459" fill-opacity="0.2"/>
<path d="M102.449 131.408C102.347 135.297 102.143 131.919 102.143 123.732C102.143 115.545 102.347 112.372 102.449 116.568C102.653 120.764 102.653 127.519 102.449 131.408Z" fill="#78A559" fill-opacity="0.56"/>
<path d="M146.327 111.247C145.918 111.656 145.306 111.656 144.898 111.144C144.388 110.735 144.694 110.428 145.51 110.428C146.327 110.428 146.633 110.735 146.327 111.247Z" fill="#78A559" fill-opacity="0.56"/>
<path d="M100 68.0588C99.2857 68.2635 98.0612 68.2635 97.449 68.0588C96.7347 67.7518 97.2449 67.6494 98.6735 67.6494C100.102 67.6494 100.612 67.7518 100 68.0588Z" fill="#77A459" fill-opacity="0.49"/>
<path d="M100 71.129C99.2857 71.3337 98.0612 71.3337 97.449 71.129C96.7347 70.822 97.2449 70.7196 98.6735 70.7196C100.102 70.7196 100.612 70.822 100 71.129Z" fill="#77A459" fill-opacity="0.49"/>
<path d="M149.49 119.332C148.605 119.877 148.435 119.707 148.98 118.82C149.388 118.206 150 117.592 150.204 117.592C150.51 117.592 150.714 117.796 150.714 118.103C150.714 118.41 150.102 118.922 149.49 119.332Z" fill="#77A459" fill-opacity="0.24"/>
<path d="M126.122 102.855C125.918 103.162 125 103.162 124.184 102.957C123.061 102.548 123.163 102.343 124.592 102.343C125.714 102.241 126.327 102.548 126.122 102.855Z" fill="#78A55A" fill-opacity="0.83"/>
<path d="M98.6735 138.776C96.7347 138.981 93.0612 138.981 90.5102 138.776C87.9592 138.572 89.5919 138.367 94.0816 138.367C98.5714 138.367 100.612 138.572 98.6735 138.776Z" fill="#78A55A" fill-opacity="0.83"/>
<path d="M102.245 70.4126C101.633 71.129 101.224 70.7197 101.224 69.4916C101.224 68.2635 101.633 67.8541 102.245 68.5705C102.925 69.1845 102.925 69.7986 102.245 70.4126Z" fill="#77A459" fill-opacity="0.41"/>
<path d="M100.612 79.3163C100.408 79.6233 99.4898 79.6233 98.6734 79.4186C97.551 79.0093 97.653 78.8046 99.0816 78.8046C100.204 78.7022 100.816 79.0093 100.612 79.3163Z" fill="#77A459" fill-opacity="0.41"/>
<path d="M113.163 79.3163C112.551 79.521 111.327 79.521 110.714 79.3163H110.612C110 79.0093 110.51 78.9069 111.939 78.9069C113.367 78.9069 113.878 79.0093 113.163 79.3163Z" fill="#77A459" fill-opacity="0.41"/>
<path d="M147.959 107.972C147.347 108.176 146.122 108.176 145.408 107.972C144.796 107.665 145.306 107.562 146.735 107.562C148.163 107.562 148.673 107.665 147.959 107.972Z" fill="#77A459" fill-opacity="0.41"/>
<path d="M148.673 119.229C148.469 119.536 147.551 119.536 146.735 119.332C145.612 118.922 145.714 118.717 147.143 118.717C148.265 118.615 148.878 118.922 148.673 119.229Z" fill="#77A459" fill-opacity="0.41"/>
<path d="M126.122 99.7844C125.918 100.091 125 100.091 124.184 99.8868C123.061 99.4774 123.163 99.2727 124.592 99.2727C125.714 99.1704 126.327 99.4774 126.122 99.7844Z" fill="#77A459" fill-opacity="0.29"/>
<path d="M147.857 99.7844C147.245 99.9891 146.02 99.9891 145.408 99.7844H145.306C144.694 99.4774 145.204 99.3751 146.633 99.3751C148.061 99.3751 148.571 99.4774 147.857 99.7844Z" fill="#77A459" fill-opacity="0.29"/>
<path d="M100 76.2461C99.2857 76.4507 98.0612 76.4507 97.449 76.2461C96.7347 75.939 97.2449 75.8367 98.6735 75.8367C100.102 75.8367 100.612 75.939 100 76.2461Z" fill="#77A459" fill-opacity="0.71"/>
<path d="M111.633 76.3484C111.224 76.8601 110.612 76.7578 110.204 76.3484C109.694 75.939 110 75.632 110.816 75.632C111.633 75.632 111.939 75.939 111.633 76.3484Z" fill="#77A459" fill-opacity="0.71"/>
<path d="M122.653 103.264C122.347 103.264 121.837 102.752 121.531 102.241C121.224 101.729 121.224 101.217 121.531 101.217C121.837 101.217 122.347 101.729 122.653 102.241C122.959 102.752 122.959 103.264 122.653 103.264Z" fill="#77A459" fill-opacity="0.71"/>
<path d="M147.959 116.159C147.245 116.364 146.02 116.364 145.408 116.159C144.694 115.852 145.204 115.75 146.633 115.75C148.061 115.75 148.571 115.852 147.959 116.159Z" fill="#77A459" fill-opacity="0.71"/>
<path d="M96.3265 70.3103C95.9184 70.7196 95.5102 70.3103 95.5102 69.4916C95.5102 68.6728 95.9184 68.2635 96.3265 68.6728C96.7347 69.1845 96.7347 69.7986 96.3265 70.3103Z" fill="#77A459" fill-opacity="0.59"/>
<path d="M148.367 111.144C147.959 111.656 147.347 111.656 146.939 111.144C146.429 110.735 146.735 110.428 147.551 110.428C148.367 110.428 148.673 110.735 148.367 111.144Z" fill="#77A459" fill-opacity="0.59"/>
<path d="M82.8572 115.545C81.4286 115.545 80.3062 115.033 80.3062 114.522C80.3062 114.01 81.4286 113.498 82.8572 113.498C84.2857 113.498 85.4082 114.01 85.4082 114.522C85.4082 115.033 84.2857 115.545 82.8572 115.545Z" fill="#77A459" fill-opacity="0.99"/>
<path d="M92.5511 115.545C91.4286 115.545 90.5102 115.033 90.5102 114.522C90.5102 114.01 91.6327 113.498 93.0613 113.498C94.4898 113.498 95.4082 114.01 95.1021 114.522C94.7959 115.033 93.6735 115.545 92.5511 115.545Z" fill="#77A459" fill-opacity="0.99"/>
<path d="M80.8164 123.016C80.6123 122.504 80.6123 121.89 81.0204 121.481C81.3266 120.969 82.5511 120.662 83.5715 120.662C84.5919 120.662 85.4082 121.378 85.4082 122.197C85.4082 123.016 84.4898 123.732 83.3674 123.732C82.2449 123.732 81.1225 123.425 80.8164 123.016Z" fill="#77A459" fill-opacity="0.99"/>
<path d="M90.8164 123.323C90.1021 123.016 89.6939 122.197 90 121.685C90.4082 121.174 91.5306 120.662 92.5511 120.662C93.6735 120.662 94.7959 121.174 95.1021 121.685C95.4082 122.197 94.7959 123.016 93.8776 123.323C92.8572 123.63 91.4286 123.63 90.8164 123.323Z" fill="#77A459" fill-opacity="0.99"/>
<path d="M82.8572 130.896C81.4286 130.896 80.5102 130.384 80.8164 129.873C81.2245 129.361 82.347 128.849 83.3674 128.849C84.4898 128.849 85.4082 129.361 85.4082 129.873C85.4082 130.384 84.2857 130.896 82.8572 130.896Z" fill="#77A459" fill-opacity="0.99"/>
<path d="M92.347 130.896C90.7143 130.896 89.6939 130.487 90 129.873C90.4082 129.361 91.5306 128.849 92.5511 128.849C93.6735 128.849 94.7959 129.361 94.898 129.873C95.1021 130.384 93.9796 130.896 92.347 130.896Z" fill="#77A459" fill-opacity="0.99"/>
<path d="M84.2857 131.51C84.0817 131.817 83.1633 131.817 82.347 131.612C81.2245 131.203 81.3266 130.998 82.7551 130.998C83.8776 130.896 84.4898 131.203 84.2857 131.51Z" fill="#77A459" fill-opacity="0.97"/>
<path d="M93.7755 131.51C93.1633 131.715 91.9388 131.715 91.3266 131.51H91.2245C90.6123 131.203 91.1225 131.101 92.5511 131.101C93.9796 131.101 94.4898 131.203 93.7755 131.51Z" fill="#77A459" fill-opacity="0.97"/>
<path d="M83.7755 113.805C82.449 113.6 81.3265 113.293 81.3265 112.986C81.3265 112.679 82.2449 112.475 83.3674 112.475C84.4898 112.475 85.6123 112.782 85.8163 113.191C86.0204 113.703 85.102 113.907 83.7755 113.805Z" fill="#77A459" fill-opacity="0.79"/>
<path d="M93.7755 113.089C93.1633 113.293 91.9388 113.293 91.3265 113.089H91.2245C90.6123 112.782 91.1225 112.679 92.551 112.679C93.9796 112.679 94.4898 112.782 93.7755 113.089Z" fill="#77A459" fill-opacity="0.79"/>
<path d="M84.2857 116.159C84.0817 116.466 83.1633 116.466 82.347 116.261C81.2245 115.852 81.3266 115.647 82.7551 115.647C83.8776 115.545 84.4898 115.852 84.2857 116.159Z" fill="#77A459" fill-opacity="0.33"/>
<path d="M84.2857 128.44C84.0817 128.747 83.1633 128.747 82.347 128.542C81.2245 128.133 81.3266 127.928 82.7551 127.928C83.8776 127.826 84.4898 128.133 84.2857 128.44Z" fill="#77A459" fill-opacity="0.24"/>
<path d="M93.2653 128.542C92.8572 129.054 92.2449 129.054 91.8368 128.542H91.7347C91.3266 128.133 91.6327 127.826 92.449 127.826C93.2653 127.826 93.5715 128.133 93.2653 128.542Z" fill="#77A459" fill-opacity="0.24"/>
<path d="M94.2857 116.261C93.8775 116.773 93.2653 116.773 92.8571 116.261H92.7551C92.3469 115.852 92.653 115.545 93.4694 115.545C94.2857 115.545 94.5918 115.852 94.2857 116.261Z" fill="#77A459" fill-opacity="0.29"/>
</svg>
